<?xml version="1.0" encoding="utf-8"?>
<!-- Generator: Adobe Illustrator 22.1.0, SVG Export Plug-In . SVG Version: 6.00 Build 0)  -->
<svg version="1.1" id="Layer_1" xmlns="http://www.w3.org/2000/svg" xmlns:xlink="http://www.w3.org/1999/xlink" x="0px" y="0px"
	 viewBox="0 0 146 146" style="enable-background:new 0 0 146 146;" xml:space="preserve">
<style type="text/css">
	.st0{fill:none;stroke:#0099BC;stroke-width:2;stroke-miterlimit:10;}
	.st1{fill:#00B7C3;stroke:#0099BC;stroke-miterlimit:10;}
	.st2{fill:#2D7D9A;}
	.st3{fill:none;}
	.st4{fill:#0099BC;stroke:#0099BC;stroke-width:0.25;stroke-miterlimit:10;}
</style>
<circle class="st0" cx="73" cy="73" r="72"/>
<path class="st1" d="M63.3,124.3c-0.1,0-0.2,0.1-0.2,0.2l-1,3.7h-0.2L66,112h0.3l4.2,16.2h-0.2l-1-3.7c0-0.1-0.1-0.2-0.2-0.2H63.3z
	 M63.4,124.1h5.4c0.1,0,0.3-0.1,0.2-0.3l-2.7-10.6c-0.1-0.2-0.4-0.2-0.4,0l-2.7,10.6C63.2,123.9,63.3,124.1,63.4,124.1z"/>
<path class="st1" d="M75.5,112.1c0.6,0,1.1,0.1,1.6,0.3c0.4,0.2,0.8,0.5,1,0.8c0.3,0.3,0.4,0.8,0.5,1.2c0.1,0.5,0.2,1,0.2,1.5v1.6
	c0,1.3-0.3,2.2-0.9,2.8s-1.5,0.9-2.9,0.9h-2.5v7h-0.2v-16.1H75.5z M75,121c1.3,0,2.1-0.3,2.7-0.8c0.5-0.6,0.8-1.4,0.8-2.7v-1.6
	c0-0.5-0.1-1-0.2-1.5c-0.1-0.4-0.3-0.8-0.5-1.2c-0.2-0.3-0.5-0.6-0.9-0.8c-0.4-0.2-0.9-0.3-1.5-0.3h-2.9v8.7H75z"/>
<path class="st1" d="M83.7,112.1c0.6,0,1.1,0.1,1.6,0.3c0.4,0.2,0.8,0.5,1,0.8c0.3,0.3,0.4,0.8,0.5,1.2c0.1,0.5,0.2,1,0.2,1.5v1.6
	c0,1.3-0.3,2.2-0.9,2.8s-1.5,0.9-2.9,0.9h-2.5v7h-0.2v-16.1H83.7z M83.3,121c1.3,0,2.1-0.3,2.7-0.8c0.5-0.6,0.8-1.4,0.8-2.7v-1.6
	c0-0.5-0.1-1-0.2-1.5c-0.1-0.4-0.3-0.8-0.5-1.2c-0.2-0.3-0.5-0.6-0.9-0.8c-0.4-0.2-0.9-0.3-1.5-0.3h-2.9v8.7H83.3z"/>
<path class="st2" d="M22.9,78.1l-2.4,10.7h-2.9l10.6-48.5h4.7l10.9,48.5h-3.2l-2.4-10.7H22.9z M23.4,75.4h14.2l-7.2-31.3L23.4,75.4z
	"/>
<path class="st2" d="M59.3,50.1c1.9,0,3.5,0.3,4.8,0.9c1.4,0.6,2.5,1.4,3.4,2.5c0.9,1.1,1.5,2.3,1.9,3.8c0.4,1.5,0.6,3.1,0.6,4.9
	v24.3c0,1.8-0.2,3.4-0.6,4.9c-0.4,1.5-1.1,2.7-1.9,3.8c-0.9,1.1-2,1.9-3.4,2.5c-1.4,0.6-3,0.9-4.8,0.9H48.6V50.1H59.3z M59.3,95.5
	c2.7,0,4.7-0.8,5.9-2.5c1.2-1.7,1.8-3.8,1.8-6.5V61.9c0-2.7-0.6-4.8-1.8-6.5C63.9,53.8,62,53,59.3,53h-7.4v42.6H59.3z"/>
<path class="st2" d="M77.9,40.5l9.9,44.7l9.9-44.7h3L90.1,88.8h-4.7L74.6,40.5H77.9z"/>
<path class="st2" d="M108.5,87.7L106,98.4h-2.9L113.7,50h4.7l10.9,48.5h-3.2l-2.4-10.7H108.5z M108.9,85h14.2L116,53.7L108.9,85z"/>
<line class="st3" x1="31" y1="88.4" x2="31" y2="98"/>
<line class="st4" x1="31" y1="67.2" x2="31" y2="98"/>
<line class="st4" x1="58" y1="74.9" x2="58" y2="40.4"/>
<line class="st4" x1="88" y1="59.6" x2="88" y2="98"/>
<line class="st4" x1="116" y1="74.9" x2="116" y2="40.4"/>
</svg>
